<?xml version="1.0" encoding="utf-8"?>
<svg version="1.0" width="1368.000000pt" height="666.000000pt" viewBox="0 0 1368.000000 666.000000" preserveAspectRatio="xMidYMid meet" xmlns="http://www.w3.org/2000/svg">
  <g transform="translate(0.000000,666.000000) scale(0.100000,-0.100000)" fill="#000000" stroke="none">
    <path d="M2062 4450 c-74 -16 -123 -50 -151 -105 l-26 -49 -3 -988 -2 -988 65 0 65 0 0 950 c0 1025 -1 999 52 1034 65 42 168 25 202 -34 21 -34 21 -50 24 -707 l3 -673 64 0 65 0 0 638 c-1 350 -5 668 -9 705 -14 102 -45 156 -112 189 -61 31 -164 43 -237 28z m181 -32 c60 -18 112 -72 131 -137 14 -48 16 -137 16 -708 l0 -654 -37 3 -38 3 -5 670 c-4 528 -8 675 -18 693 -24 41 -71 62 -142 62 -76 0 -119 -21 -147 -72 -17 -31 -18 -93 -23 -983 l-5 -950 -35 0 -35 0 0 960 c0 959 0 960 21 1006 24 51 71 92 124 107 50 14 146 14 193 0z" style="fill: rgb(252, 23, 80);"/>
    <path d="M5690 4265 c0 -9 -38 -328 -85 -709 -47 -380 -85 -697 -85 -702 0 -5 51 -22 113 -38 63 -15 127 -35 144 -46 50 -30 63 -87 63 -272 l0 -158 75 0 75 0 0 853 c0 908 0 914 -48 975 -15 19 -216 112 -243 112 -5 0 -9 -7 -9 -15z m116 -63 c96 -40 112 -51 129 -95 13 -32 15 -151 15 -887 l0 -850 -34 0 -34 0 -4 158 c-3 139 -6 162 -27 205 -28 57 -50 70 -189 108 -58 15 -106 29 -107 31 -2 2 158 1323 165 1356 1 6 23 0 86 -26z" style="fill: rgb(252, 23, 80);"/>
    <path d="M6350 4265 c0 -9 -38 -328 -85 -709 -47 -380 -85 -697 -85 -702 0 -5 51 -22 113 -38 63 -15 127 -35 144 -46 50 -30 63 -87 63 -272 l0 -158 75 0 75 0 0 853 c0 908 0 914 -48 975 -15 19 -216 112 -243 112 -5 0 -9 -7 -9 -15z m116 -63 c96 -40 112 -51 129 -95 13 -32 15 -151 15 -887 l0 -850 -34 0 -34 0 -4 158 c-3 139 -6 162 -27 205 -28 57 -50 70 -189 108 -58 15 -106 29 -107 31 -2 2 158 1323 165 1356 1 6 23 0 86 -26z" style="fill: rgb(252, 23, 80);"/>
    <path d="M3390 4231 c-225 -51 -217 -49 -240 -73 -28 -30 -28 -98 -1 -98 11 0 23 5 26 10 8 13 245 13 280 0 45 -17 50 -53 20 -153 -45 -150 -36 -216 66 -485 87 -228 95 -628 18 -877 -28 -93 -26 -92 -172 -104 -131 -10 -188 -28 -211 -64 -13 -21 0 -34 22 -21 13 9 23 7 42 -8 22 -16 33 -17 71 -9 63 14 200 17 224 5 13 -7 85 -7 210 -1 126 6 246 5 355 -2 159 -10 166 -10 193 10 23 17 31 18 43 8 12 -10 17 -10 27 0 9 10 5 19 -21 42 l-32 29 -154 0 c-123 0 -156 3 -166 15 -10 11 -9 35 5 112 9 54 18 100 21 102 3 3 26 -3 52 -13 26 -10 54 -20 62 -23 15 -4 40 48 91 182 11 29 12 26 55 -90 80 -220 94 -252 130 -294 69 -80 169 -104 241 -60 31 19 34 25 29 53 l-6 31 48 -48 c39 -38 54 -47 84 -47 29 0 37 4 42 24 4 16 -45 143 -173 447 -98 233 -186 440 -196 459 -59 115 -377 560 -471 659 -75 81 -81 90 -94 151 -33 161 -46 170 -227 169 -109 -1 -153 -7 -293 -38z m439 -19 c20 -19 32 -48 44 -101 10 -40 17 -79 17 -85 0 -6 30 -41 66 -76 96 -94 380 -484 472 -650 36 -64 382 -876 382 -896 0 -8 -7 -14 -16 -14 -14 0 -717 687 -855 835 -140 150 -269 363 -272 449 -1 24 2 48 6 53 5 4 90 9 190 9 154 1 182 4 185 17 3 13 -23 15 -175 19 -136 4 -184 1 -205 -9 -55 -27 -50 -106 16 -238 64 -128 185 -283 368 -470 l158 -162 -41 -109 c-22 -60 -42 -110 -43 -112 -2 -1 -34 11 -72 27 l-69 30 -22 -136 c-30 -191 -37 -183 164 -183 119 0 154 -3 150 -12 -3 -10 -85 -13 -365 -13 -199 0 -362 3 -362 8 0 4 39 7 88 7 151 1 231 14 260 43 23 23 25 35 32 153 6 90 4 141 -4 174 -7 26 -85 175 -173 331 -158 280 -213 397 -253 541 -27 97 -25 156 6 260 31 99 27 145 -12 185 -25 25 -26 25 -180 21 -128 -2 -151 -1 -127 9 34 15 281 17 317 3 34 -13 34 5 1 50 -14 19 -25 37 -25 41 0 14 91 27 203 28 117 1 119 1 146 -27z m-371 -27 c7 -14 12 -28 12 -30 0 -2 -60 -5 -132 -8 -73 -2 -144 -7 -158 -11 -24 -7 -24 -6 3 9 21 12 171 49 258 64 3 1 11 -10 17 -24z m292 -1140 l103 -180 -12 -69 c-6 -39 -13 -72 -16 -74 -2 -2 -31 12 -65 32 -33 20 -64 36 -68 36 -4 0 -25 -66 -46 -147 -22 -82 -43 -163 -48 -180 -6 -23 -15 -33 -28 -33 -18 0 -18 3 4 63 53 139 70 248 69 437 -1 96 -5 208 -10 248 -7 55 -6 69 2 60 7 -7 58 -94 115 -193z m881 -588 c9 -40 9 -51 -2 -58 -66 -43 -169 1 -223 95 -21 36 -126 312 -126 330 0 4 76 -66 169 -155 157 -150 171 -166 182 -212z m-732 185 c1 -114 -11 -169 -40 -188 -21 -13 -229 -21 -229 -9 0 22 75 295 81 295 4 0 35 -16 70 -35 63 -36 78 -35 79 5 0 8 5 33 12 55 11 38 12 39 19 15 4 -14 7 -76 8 -138z m-419 -237 c0 -12 -15 -15 -72 -15 -40 0 -90 -3 -112 -7 -31 -5 -38 -3 -34 8 5 16 60 25 156 27 49 2 62 -1 62 -13z" style="fill: rgb(252, 23, 80);"/>
    <path d="M3571 4196 c-16 -19 -11 -46 12 -60 25 -16 52 4 52 40 0 24 -5 30 -26 32 -14 2 -31 -4 -38 -12z m49 -20 c0 -20 -19 -31 -32 -18 -6 6 -7 15 -4 21 10 16 36 13 36 -3z" style="fill: rgb(252, 23, 80);"/>
    <path d="M7580 4231 c-225 -51 -217 -49 -240 -73 -28 -30 -28 -98 -1 -98 11 0 23 5 26 10 8 13 245 13 280 0 45 -17 50 -53 20 -153 -45 -150 -36 -216 66 -485 87 -228 95 -628 18 -877 -28 -93 -26 -92 -172 -104 -131 -10 -188 -28 -211 -64 -13 -21 0 -34 22 -21 13 9 23 7 42 -8 22 -16 33 -17 71 -9 63 14 200 17 224 5 13 -7 85 -7 210 -1 126 6 246 5 355 -2 159 -10 166 -10 193 10 23 17 31 18 43 8 12 -10 17 -10 27 0 9 10 5 19 -21 42 l-32 29 -154 0 c-123 0 -156 3 -166 15 -10 11 -9 35 5 112 9 54 18 100 21 102 3 3 26 -3 52 -13 26 -10 54 -20 62 -23 15 -4 40 48 91 182 11 29 12 26 55 -90 80 -220 94 -252 130 -294 69 -80 169 -104 241 -60 31 19 34 25 29 53 l-6 31 48 -48 c39 -38 54 -47 84 -47 29 0 37 4 42 24 4 16 -45 143 -173 447 -98 233 -186 440 -196 459 -59 115 -377 560 -471 659 -75 81 -81 90 -94 151 -33 161 -46 170 -227 169 -109 -1 -153 -7 -293 -38z m439 -19 c20 -19 32 -48 44 -101 10 -40 17 -79 17 -85 0 -6 30 -41 66 -76 96 -94 380 -484 472 -650 36 -64 382 -876 382 -896 0 -8 -7 -14 -16 -14 -14 0 -717 687 -855 835 -140 150 -269 363 -272 449 -1 24 2 48 6 53 5 4 90 9 190 9 154 1 182 4 185 17 3 13 -23 15 -175 19 -136 4 -184 1 -205 -9 -55 -27 -50 -106 16 -238 64 -128 185 -283 368 -470 l158 -162 -41 -109 c-22 -60 -42 -110 -43 -112 -2 -1 -34 11 -72 27 l-69 30 -22 -136 c-30 -191 -37 -183 164 -183 119 0 154 -3 150 -12 -3 -10 -85 -13 -365 -13 -199 0 -362 3 -362 8 0 4 39 7 88 7 151 1 231 14 260 43 23 23 25 35 32 153 6 90 4 141 -4 174 -7 26 -85 175 -173 331 -158 280 -213 397 -253 541 -27 97 -25 156 6 260 31 99 27 145 -12 185 -25 25 -26 25 -180 21 -128 -2 -151 -1 -127 9 34 15 281 17 317 3 34 -13 34 5 1 50 -14 19 -25 37 -25 41 0 14 91 27 203 28 117 1 119 1 146 -27z m-371 -27 c7 -14 12 -28 12 -30 0 -2 -60 -5 -132 -8 -73 -2 -144 -7 -158 -11 -24 -7 -24 -6 3 9 21 12 171 49 258 64 3 1 11 -10 17 -24z m292 -1140 l103 -180 -12 -69 c-6 -39 -13 -72 -16 -74 -2 -2 -31 12 -65 32 -33 20 -64 36 -68 36 -4 0 -25 -66 -46 -147 -22 -82 -43 -163 -48 -180 -6 -23 -15 -33 -28 -33 -18 0 -18 3 4 63 53 139 70 248 69 437 -1 96 -5 208 -10 248 -7 55 -6 69 2 60 7 -7 58 -94 115 -193z m881 -588 c9 -40 9 -51 -2 -58 -66 -43 -169 1 -223 95 -21 36 -126 312 -126 330 0 4 76 -66 169 -155 157 -150 171 -166 182 -212z m-732 185 c1 -114 -11 -169 -40 -188 -21 -13 -229 -21 -229 -9 0 22 75 295 81 295 4 0 35 -16 70 -35 63 -36 78 -35 79 5 0 8 5 33 12 55 11 38 12 39 19 15 4 -14 7 -76 8 -138z m-419 -237 c0 -12 -15 -15 -72 -15 -40 0 -90 -3 -112 -7 -31 -5 -38 -3 -34 8 5 16 60 25 156 27 49 2 62 -1 62 -13z" style="fill: rgb(252, 23, 80);"/>
    <path d="M7761 4196 c-16 -19 -11 -46 12 -60 25 -16 52 4 52 40 0 24 -5 30 -26 32 -14 2 -31 -4 -38 -12z m49 -20 c0 -8 -5 -18 -11 -22 -14 -8 -33 11 -25 25 10 16 36 13 36 -3z" style="fill: rgb(252, 23, 80);"/>
    <path d="M9870 3268 c-80 -94 -146 -175 -148 -180 -2 -4 32 -8 76 -8 l79 0 62 75 c34 41 66 75 71 75 5 0 37 -36 72 -80 35 -44 65 -80 68 -80 3 1 31 37 63 80 33 44 62 80 65 80 4 0 29 -32 56 -70 27 -39 55 -75 61 -80 8 -7 28 13 69 70 31 44 59 80 61 80 2 0 32 -36 66 -81 34 -44 65 -77 69 -72 4 4 28 38 54 75 26 37 51 70 56 73 5 3 32 -28 60 -67 29 -40 56 -77 60 -81 4 -5 35 28 69 72 34 45 64 81 66 81 2 0 30 -36 61 -80 31 -43 60 -77 64 -75 3 2 31 38 60 79 30 42 57 76 60 76 3 0 33 -36 66 -81 l59 -80 30 33 c16 19 49 56 72 84 l41 49 45 -50 c24 -27 55 -63 68 -78 23 -27 27 -28 103 -25 l79 3 -59 70 c-33 39 -101 118 -151 177 l-91 107 -63 -79 c-35 -44 -67 -80 -70 -80 -3 0 -32 36 -64 80 -32 44 -60 80 -61 80 -1 0 -25 -31 -53 -69 -78 -104 -71 -104 -136 -11 l-57 81 -61 -80 c-34 -44 -65 -80 -68 -80 -3 -1 -32 35 -64 79 -32 44 -59 80 -60 80 -1 0 -28 -36 -60 -80 -32 -44 -61 -80 -64 -80 -3 1 -32 34 -64 75 -32 41 -62 75 -67 75 -4 0 -33 -34 -63 -76 l-55 -76 -62 78 c-34 44 -64 80 -65 82 -1 2 -29 -33 -61 -77 -33 -44 -62 -80 -65 -81 -3 0 -28 28 -55 61 -27 34 -56 70 -64 80 -14 18 -24 8 -160 -153z m211 37 c34 -41 65 -75 69 -75 4 0 33 34 64 75 31 41 58 75 60 75 2 0 31 -36 66 -80 l63 -80 59 81 c33 45 63 77 67 73 5 -5 34 -42 66 -82 l57 -72 55 72 c30 40 58 77 62 81 4 4 35 -28 69 -73 l60 -81 62 81 c34 44 64 80 66 80 1 0 29 -36 60 -80 32 -44 61 -77 64 -73 4 5 33 41 65 81 32 40 62 69 66 65 4 -4 32 -41 62 -80 l54 -73 68 81 c65 78 68 80 85 63 10 -11 62 -71 115 -134 l96 -115 -33 -3 c-35 -4 -34 -4 -144 122 l-50 59 -65 -81 c-35 -45 -67 -82 -70 -82 -3 0 -32 36 -64 80 -32 44 -61 80 -64 80 -3 0 -28 -32 -56 -71 -27 -39 -55 -75 -62 -80 -8 -7 -28 14 -68 71 -31 44 -58 80 -60 80 -2 0 -32 -36 -66 -81 -34 -44 -65 -77 -69 -72 -4 4 -31 41 -59 81 -29 39 -54 72 -56 72 -2 0 -27 -33 -56 -72 -28 -40 -55 -77 -59 -81 -4 -5 -35 28 -69 72 -34 45 -63 81 -65 81 -2 0 -30 -36 -62 -80 -31 -44 -59 -80 -60 -80 -2 0 -31 36 -64 80 -34 44 -64 78 -68 76 -4 -2 -32 -38 -62 -80 -30 -41 -58 -76 -61 -76 -5 0 -25 24 -120 143 -16 19 -18 17 -94 -72 -69 -81 -81 -91 -111 -91 -19 0 -34 3 -34 6 0 7 220 264 225 264 2 0 32 -34 66 -75z" style="fill: rgb(252, 23, 80);"/>
  </g>
</svg>