<?xml version="1.0" encoding="utf-8"?>
<svg viewBox="0 0 512 512" style="enable-background:new 0 0 512 512;" xmlns="http://www.w3.org/2000/svg">
  <g>
    <g/>
  </g>
  <g transform="matrix(0.050471, 0, 0, -0.050471, 2.461711, 497.99939)" fill="#000000" stroke="none" style="">
    <g transform="matrix(0.984541, 0, 0, 0.984541, 69.107986, -6.863886)" fill="#000000" stroke="none" style="">
      <path d="M 1000.261 7674.545 L 1000.261 7393.09 L 1364.963 7393.09 L 1729.666 7393.09 L 1731.252 7141.763 L 1733.63 6891.228 L 1828.769 6869.029 C 2385.337 6739.797 2845.971 6423.457 3160.726 5954.102 C 3324.049 5709.91 3426.324 5465.717 3493.715 5153.342 C 3501.643 5118.457 3508.779 5086.745 3510.364 5081.988 C 3511.95 5078.024 3498.472 5051.067 3480.236 5022.525 C 3369.24 4850.481 3233.666 4650.687 3181.339 4582.504 C 3104.435 4481.021 2953.797 4328.797 2887.199 4285.985 C 2686.613 4156.753 2501.883 4225.73 2321.91 4499.256 C 2281.476 4561.097 2173.651 4776.747 2141.145 4862.373 C 2130.838 4889.329 2119.739 4911.529 2117.36 4911.529 C 2113.395 4911.529 1653.553 4592.018 1644.832 4583.297 C 1636.904 4575.369 1729.666 4339.105 1781.993 4235.244 C 1942.144 3914.94 2187.129 3692.154 2459.071 3617.628 C 2518.533 3601.772 2543.903 3599.394 2673.134 3600.186 C 2809.502 3600.186 2824.565 3601.772 2891.163 3622.385 C 3157.555 3702.461 3433.46 3935.554 3737.114 4338.312 C 3769.619 4381.124 3847.317 4491.328 3909.951 4582.504 C 4332.53 5202.498 4503.781 5394.363 4682.168 5449.861 C 4746.388 5469.681 4780.479 5470.474 4838.356 5453.825 C 5000.886 5406.255 5220.501 5217.561 5457.557 4921.043 L 5535.254 4823.524 L 5535.254 3537.553 L 5535.254 2251.581 L 5844.459 2249.202 L 6153.663 2247.616 L 6153.663 5101.808 L 6153.663 7956 L 3576.962 7956 L 1000.261 7956 L 1000.261 7674.545 Z M 5533.669 6570.924 C 5534.461 6028.627 5532.876 5751.929 5527.326 5751.929 C 5523.362 5751.929 5487.685 5775.715 5448.836 5805.842 C 5321.983 5900.982 5143.596 6004.05 5035.771 6044.484 C 4917.64 6088.09 4864.52 6096.811 4718.639 6096.811 C 4560.072 6096.811 4503.781 6084.918 4391.199 6029.42 C 4280.203 5973.922 4120.052 5851.826 4010.641 5737.659 C 3959.9 5684.539 3956.728 5682.16 3949.593 5698.81 C 3945.629 5708.324 3921.051 5769.372 3894.095 5833.591 C 3835.425 5977.886 3749.006 6155.48 3683.201 6268.855 C 3453.28 6665.271 3098.885 7003.81 2685.027 7221.838 C 2616.843 7258.309 2433.7 7337.592 2362.345 7362.962 C 2332.217 7372.476 2308.432 7383.576 2308.432 7386.747 C 2308.432 7390.711 3033.873 7392.297 3920.258 7391.504 L 5531.29 7389.126 L 5533.669 6570.924 Z" style="fill: rgba(88, 88, 88, 0.8);"/>
      <path d="M 6177.448 7674.545 L 6177.448 7393.09 L 6558.006 7393.09 C 6874.346 7393.09 6949.665 7390.711 6999.614 7380.405 C 7250.148 7328.871 7433.292 7155.241 7485.618 6921.356 C 7500.683 6850.794 7501.476 6814.323 7501.476 4549.205 L 7501.476 2247.616 L 7810.679 2247.616 L 8119.884 2247.616 L 8119.884 4555.547 C 8119.884 6653.378 8120.677 6868.236 8132.569 6918.977 C 8176.968 7112.427 8316.506 7267.823 8517.092 7347.898 C 8600.339 7381.197 8678.036 7393.09 8809.647 7393.09 L 8928.572 7393.09 L 8928.572 7674.545 L 8928.572 7956 L 8480.622 7956 L 8032.672 7956 L 7982.724 7933.8 C 7887.584 7890.195 7833.672 7796.641 7821.779 7653.139 C 7818.608 7619.047 7815.436 7591.297 7813.851 7591.297 C 7812.265 7591.297 7779.76 7616.668 7741.703 7646.795 C 7554.596 7797.434 7258.869 7917.944 7027.362 7937.765 C 6995.649 7940.144 6967.9 7945.693 6965.521 7948.865 C 6963.143 7952.829 6784.756 7956 6569.106 7956 L 6177.448 7956 L 6177.448 7674.545 Z" style="fill: rgb(255, 0, 55);"/>
    </g>
  </g>
</svg>